Patient5_TMGait_0pt45_1_right_07_EMG.mot
version=1
nRows=39
nColumns=33
inDegrees=no
endheader
time	1LAddLong	2LGlutMax	3LGlutMed	4LIliopsoas	5LSemiMemb	6LBicFemLong	7LRecFem	8LTensFascLat	9LVastMed	10LVasLat	11LGasMed	12lGasLat	13LTibAnt	14LPeroneusLong	15LSol	16LTibPost	17RAddLong	18RGlutMax	19RGlutMed	20RIliopsoas	21RSemiMemb	22RBicFemLong	23RRecFem	24RTensFascLat	25RVastMed	26RVasLat	27RGasMed	28RGasLat	29RTibAnt	30RPeroneusLong	31RSol	32RTibPost
12.355	0.047607	-0.051575	-0.11353	-0.010986	-0.03479	0.049591	0.002747	-0.1738	-0.047913	0.022278	-0.30075	-0.01297	-0.018311	0.002594	0.017242	0.06958	-0.051422	0	0.008698	0.09552	0.12527	-0.000153	-0.014496	-0.061188	-0.078125	0.013733	0.007782	-0.033569	0.00473	-0.056152	0.00885	0.000916
12.356	0.043335	-0.06012	-0.091095	0.009308	-0.006409	0.048065	-0.01709	-0.13001	-0.056458	-0.00351	-0.42389	-0.029297	-0.003052	-0.020447	-0.10284	0.086975	-0.039978	0.002441	-0.033112	0.13275	0.13275	0.00061	-0.028229	-0.15457	-0.049896	0.012817	0.00061	-0.032349	0.01236	-0.045013	0.010834	-0.001373
12.357	0.04425	-0.048981	-0.048981	0.02594	0.04303	0.037994	-0.026398	-0.057831	-0.060272	-0.044556	-0.14145	0.001678	-0.003815	-0.022278	-0.16022	-0.077209	-0.030365	0.00061	0.016632	0.062103	0.09613	-0.007019	-0.025635	-0.21851	-0.049744	0.008545	0.001678	-0.027313	0.004425	-0.041199	0.014496	-0.001221
12.358	0.039368	-0.044861	0.058746	0.020905	0.034027	0.063934	-0.026703	-0.072021	-0.052643	-0.009003	0.22003	0.010071	0.015106	-0.036926	-0.10239	-0.016174	-0.019379	0.002899	0.01709	-0.092773	0.093079	0.002136	-0.025787	-0.27863	-0.052338	0.012054	0.002594	0.038757	0.006409	-0.037689	0.007935	-0.006714
12.359	0.037537	-0.02182	0.066071	0.014496	0.080414	0.066376	0.001068	-0.081329	-0.01297	0.033722	0.45822	0.02594	0.008392	-0.030518	-0.08316	-0.035553	-0.007019	-0.000153	0.049133	-0.21988	0.10208	-0.00061	-0.023956	-0.31937	-0.045013	0.020905	0	0.064392	0.010376	-0.040588	0.003204	-0.00473
12.36	0.031891	-0.017395	0.033264	0.034332	0.13733	0.057373	0.013123	-0.12085	0.023956	0.032501	0.23865	0.009003	-0.035248	-0.015564	-0.09613	-0.015869	0.011902	-0.008392	0.028687	-0.042419	0.092316	0.003967	-0.028687	-0.33066	-0.033264	0.01236	0.001068	0.028687	-0.002289	-0.041504	0.00885	0.001068
12.361	0.021515	-0.018158	-0.016022	0.006561	0.17288	0.05127	0.013885	-0.20447	0.026855	0.042877	0.13809	0.016327	-0.045624	0	-0.054932	-0.12405	0.013275	-0.001221	0.071106	-0.016022	0.10452	0.000458	-0.028992	-0.34042	-0.047455	0.022125	0.008392	0.016785	-0.021515	-0.033417	-0.007629	0.00351
12.362	0.018768	-0.010529	0.085754	-0.018311	0.11276	0.010223	0.014343	-0.12268	0.018616	0.063019	0.08606	0.008698	-0.05661	0.010529	-0.022736	-0.080261	0.008698	0.001678	0.046844	-0.079193	0.10117	-0.002594	-0.028687	-0.21591	-0.048523	0.043182	0.002747	-0.000458	-0.035858	-0.027771	-0.020599	-0.000305
12.363	0.014191	-0.002594	0.1712	-0.020447	0.085907	0.042267	0.022583	-0.066986	0.009155	0.075073	0.06424	0.009308	-0.043182	0.006104	0.041809	-0.088654	0.005188	-0.002441	-0.025177	0.043335	0.097656	-0.007782	-0.02655	-0.054779	-0.044556	0.067291	0.003967	0.010834	-0.033112	-0.028076	0.002136	-0.003357
12.364	0.009918	-0.007172	0.06546	-0.023651	-0.21744	0.00885	0.011139	-0.19791	0.007172	0.10498	0.033264	0.000305	-0.026703	0.002136	0.065613	-0.13611	0.007324	0.001984	-0.035706	-0.023956	0.074463	-0.004883	-0.022888	0.12299	-0.024109	0.112	0.001373	0.017395	-0.032196	-0.025024	0.016632	-0.007477
12.365	-0.005646	-0.000305	-0.039063	-0.002136	-0.1886	-0.04425	-0.002289	-0.35004	0.042725	0.083923	0.003662	0.005341	0.012512	0.005035	-0.005646	0.081177	0.010986	0.001678	-0.023346	0.042114	0.06546	-0.007019	-0.018311	0.27817	-0.010681	0.1712	0.002289	0.027466	-0.049591	-0.020752	0.009613	-0.014343
12.366	-0.012054	0.003815	-0.060272	0.024109	-0.14801	-0.050354	-0.017853	-0.38864	0.062256	0.03479	-0.039063	0.007324	0.061646	0.007172	-0.098267	-0.000916	0.046692	0.002899	-0.036011	0.032043	0.027313	0.001526	-0.013123	0.30334	-0.024567	0.22873	0.002289	0.01709	-0.022125	-0.016937	0.006256	-0.013275
12.367	-0.005646	0.003662	-0.05661	0.035553	-0.077972	0.005646	-0.04364	-0.26657	0.046387	-0.035095	-0.00885	0.01358	0.044403	0.001984	-0.12207	-0.006104	0.032043	-0.001984	0.016632	0.067596	-0.001831	0.007019	-0.005493	0.26855	-0.030518	0.19363	0.008087	0.011749	0.009918	-0.007172	0.005188	-0.011139
12.368	-0.017853	0.004578	-0.054016	-0.006561	-0.018921	0.013428	-0.03952	0.058899	0.04303	-0.066528	-0.000763	0.017242	0.036774	0.001831	-0.11963	0.031281	0.021362	-0.000153	-0.010529	-0.13031	0.030518	-0.004425	-0.004425	0.23758	-0.02655	0.006714	0.008392	-0.007019	-0.014343	-0.023193	-0.015259	-0.008545
12.369	-0.010834	0.000305	0.087891	-0.023346	-0.009918	-0.008392	-0.034485	0.39383	-0.003815	-0.055237	0.062256	0.004272	0.035248	-0.001221	-0.096588	0.081787	0.001831	-0.001373	-0.033264	-0.097809	0.041504	-0.016785	-0.001831	0.20554	-0.016785	-0.42969	0.011139	-0.018158	-0.014648	-0.050812	-0.014954	-0.012207
12.37	-0.018768	-0.001068	0.089417	-0.007172	0.024414	-0.017853	-0.019684	0.42068	-0.018158	-0.032043	0.16678	0.012054	0.00824	0.001831	-0.049591	-0.000458	0.018616	0.003357	-0.03006	-0.053101	0.056458	-0.009155	0.001221	0.18616	0.001678	-0.32791	0.011292	-0.046692	0.010223	-0.040131	-0.007782	-0.001373
12.371	-0.026855	-0.013885	0.083923	-0.00473	0.053711	-0.014343	-0.005341	0.19699	-0.025177	-0.022736	0.080261	0.009003	-0.006104	-0.011444	0.023499	0.057983	0.029144	0.001221	-0.055695	0.071716	0.056763	-0.009613	-0.001526	0.15518	0.04837	-0.10956	0.006561	-0.060883	0.029449	-0.032043	0.002594	-0.004883
12.372	-0.033112	-0.021057	0.080872	0.003815	0.052032	-0.009308	-0.002594	0.04364	-0.020447	0.014496	0.027771	-0.009613	-0.005341	-0.010376	0.07843	0.066223	0.022888	0.005493	-0.046387	0.33188	0.071564	-0.001221	-0.002441	0.15213	0.11536	-0.039825	0.008698	-0.061798	0.06073	-0.035095	-0.007782	-0.012054
12.373	-0.048065	-0.005493	0.068817	0.003967	0.042725	-0.022278	0.001984	0.026703	-0.018463	0.036926	0.003052	-0.009308	-0.004883	0.006104	0.054016	0.11749	0.022125	0.003204	-0.036926	0.177	0.066376	-0.006104	-0.00351	0.11719	0.12558	-0.024109	0.005341	-0.043182	0.066223	-0.033569	0.002899	-0.014038
12.374	-0.055542	0.003357	0.096436	-0.000458	0.03067	-0.00885	-0.00473	0.045319	-0.034943	0.009003	-0.008087	-0.017548	-0.01709	0.005798	0.02182	0.025635	0.027313	0.005798	-0.020447	-0.015106	0.094604	-0.011139	-0.002747	0.11917	0.11963	-0.026245	0.007019	-0.025787	0.044403	-0.029907	0.00824	-0.017395
12.375	-0.074005	0.00351	0.029907	0.003204	-0.043945	-0.007629	0.000305	-0.014496	-0.0383	-0.022888	-0.052643	-0.010681	-0.024261	0.005798	0.013733	-0.082855	0.016632	0.00824	-0.036469	-0.050049	0.083008	-0.010986	0.001831	0.095978	0.11169	-0.024719	0.000458	0.000916	0.013885	-0.029297	-0.00473	-0.011902
12.376	-0.076599	0.019379	0.000763	0.021515	-0.012512	-0.017853	-0.003204	-0.075531	-0.031891	-0.024109	-0.058899	-0.014648	-0.023651	0.002136	0.028381	0.013275	0.015869	0.000305	-0.020752	-0.052032	0.072479	0.002747	-0.003052	0.067596	0.095673	-0.017548	0.004272	0.002289	0.006866	-0.032654	0.001984	-0.009918
12.377	-0.073853	0.017395	-0.010223	0.020447	0.006866	-0.002747	-0.005341	-0.17914	-0.026245	-0.005341	-0.14206	-0.011444	-0.021667	0.003204	0.026093	0.032806	0.007935	-0.00061	0.029144	-0.077972	0.068512	-0.005798	-0.000153	0.07019	0.091095	-0.011444	0.01236	-0.003815	-0.000458	-0.032654	0.002441	0.003967
12.378	-0.053558	0.012054	-0.11826	0.009918	0.00946	-0.028381	-0.008087	-0.32989	-0.049591	0.016632	-0.14603	-0.014191	-0.023041	0.003967	0.019379	0.14343	0.009918	-0.003357	0.027161	-0.066833	0.062866	-0.005798	-0.004425	0.03067	0.075073	-0.01236	0.027771	-0.004578	-0.007935	-0.031128	0.000458	-0.006104
12.379	-0.044556	0.012817	-0.25604	0.009918	0.015411	-0.042572	-0.005798	-0.42557	-0.065918	0.015564	0.049744	-0.021515	-0.020447	0.016632	-0.00061	-0.081787	0.007324	-0.006409	0.07309	-0.008087	0.050659	-0.002594	-0.011902	0.021362	0.051727	-0.002441	0.023193	-0.006714	-0.000153	-0.028381	0.005951	-0.00824
12.38	-0.027008	0.027771	-0.27451	0.006866	-0.11185	-0.057831	-0.00473	-0.45807	-0.045166	-0.016785	0.052948	-0.018311	-0.024414	0.022125	-0.081177	-0.01358	0.002594	-0.006409	0.005798	0.027771	0.041504	-0.008545	-0.011597	0.029144	0.032654	0.02121	0.007172	-0.016022	0.001678	-0.023193	0.005188	-0.016937
12.381	-0.02243	0.014038	-0.20767	0.016937	-0.082092	-0.079803	0.002289	-0.42023	-0.021667	-0.028076	0.082703	-0.015411	-0.014038	0.010681	-0.13397	0.006256	0.000916	-0.000153	-0.010071	-0.10757	0.075989	-0.012817	-0.007629	0.053711	0.019684	0.037537	-0.000305	-0.012054	0.003967	-0.024872	0.006409	-0.004883
12.382	-0.023651	0.009155	-0.16068	0.033722	-0.007172	-0.076141	0.005798	-0.40085	-0.013123	-0.010681	0.1088	0.006256	-0.010071	0.007935	0.012512	0.04364	0.004578	0.001068	-0.042419	-0.012207	0.11292	-0.020142	-0.016327	0.075378	0.019989	0.015564	-0.017395	-0.008698	0.002747	-0.034027	0.006714	-0.005951
12.383	-0.019836	0.012665	-0.034943	0.019836	-0.005798	-0.06485	0.008087	-0.19959	-0.012665	0.016327	-0.17761	0.027008	0.006409	0.020905	0.010681	0.069733	-0.007324	0.000153	-0.026093	-0.22827	0.097961	-0.0177	-0.016785	0.035248	0.018311	0.0177	-0.028992	-0.005493	0.006409	-0.036469	0.001221	-0.005188
12.384	-0.017548	0.009918	0.2478	0.007172	-0.018768	-0.043793	0.00351	0.067596	-0.012054	0.018311	-0.10025	0.035248	0.008698	0.018616	-0.015259	-0.004425	-0.005188	0.002747	-0.055847	-0.38879	0.098572	-0.016174	-0.019226	0.030823	0.033722	0.015106	-0.018158	-0.015564	0.007172	-0.039673	0.000916	-0.007019
12.385	-0.006561	-0.011902	0.45349	-0.010681	0.011292	-0.016174	-0.005951	0.18951	-0.000305	0.030212	-0.095062	0.036316	0.016327	-0.006104	0.058289	-0.026855	0.001373	0.003357	-0.036163	-0.05188	0.08667	-0.012512	-0.015564	-0.005798	0.04715	0.011444	-0.01236	0.005798	0.005188	-0.035858	0	-0.004425
12.386	0.000153	-0.007935	0.36346	-0.016022	0.028076	-0.029144	-0.009613	0.012054	0.005188	0.057373	0.03891	0.027924	0.008087	-0.014496	0.11932	-0.14282	-0.006866	0.001373	-0.006714	-0.059052	0.077972	-0.011749	-0.028534	-0.066376	0.060577	0.01358	-0.005646	0.000916	0.006104	-0.040131	-0.002289	-0.002136
12.387	0.007629	-0.005951	0.080109	-0.004272	0.016022	-0.01709	-0.010071	-0.42648	0.007324	0.058899	0.11612	0.022888	0.014038	-0.001678	0.11261	-0.04837	0.000916	0	0.026093	0.098572	0.077209	-0.012207	-0.022583	-0.12512	0.072784	0.010681	-0.005798	-0.011292	0.002747	-0.046997	-0.009766	-0.002136
12.388	0.012207	-0.017853	-0.078125	-0.007629	0.009766	-0.033569	-0.013123	-0.56351	0.003357	0.039063	0.061646	0.005951	-0.007629	0.002899	-0.029602	0.028534	-0.006409	-0.002136	0.084229	0.1445	0.067139	-0.014648	-0.020599	-0.18829	0.097046	0.011902	-0.002594	-0.019684	-0.006714	-0.042419	-0.015869	0.010071
12.389	0.021667	-0.023956	-0.15808	0.003204	0.02594	-0.050507	-0.015411	-0.53604	0.00351	0.033264	0.040283	0.005646	-0.021973	0.007935	0.010986	-0.19211	-0.001221	-0.000305	0.064545	0.13519	0.050964	-0.012054	-0.018158	-0.25314	0.11932	0.006104	-0.004578	-0.019073	0.001068	-0.028992	-0.003052	0.010834
12.39	0.032349	-0.027924	-0.2356	0.003357	0.103	-0.038757	-0.003052	-0.50629	-0.013885	0.034943	-0.011292	-0.005341	-0.026245	-0.002747	0.095367	-0.09903	-0.00412	0.003204	0.043335	0.017853	0.044403	-0.003357	-0.021515	-0.25085	0.13153	0.004272	-0.004578	-0.007172	0	-0.023956	-0.005951	0.010223
12.391	0.038605	-0.032043	-0.19119	0.018921	0.18601	-0.023651	-0.00412	-0.35156	-0.012054	0.019226	-0.030975	-0.006104	-0.035706	-0.00351	0.003204	-0.014801	-0.014343	0.001526	-0.018158	-0.001526	0.042877	-0.000153	-0.018616	-0.23071	0.1384	0.005493	-0.001373	0.011902	-0.001373	-0.01709	-0.003967	-0.005493
12.392	0.036163	-0.015564	-0.078583	0.020905	0.2359	-0.03479	-0.000763	-0.23346	0.000153	0.023804	-0.065155	0.003357	-0.033417	0.005341	-0.036774	-0.058594	-0.014038	-0.001984	0.058289	-0.19287	0.066986	0.005188	-0.023041	-0.14313	0.13702	0.005035	-0.01236	0.014191	0.000763	-0.004578	0.000458	0.000458
12.393	0.043335	-0.014038	0.062103	0.018158	0.20813	-0.042267	0.000153	-0.26169	0.009613	-0.01358	-0.13855	0.006866	-0.014496	-0.000763	0.009003	0.084991	-0.013885	-0.001068	0.023804	-0.13489	0.048828	-0.005188	-0.025787	-0.016479	0.12405	0	-0.006104	0.005035	0.005035	0.001068	-0.001373	0.005493
